<svg width="429.00000000000006" height="60.46481573308866" viewBox="0 0 369.89473684210526 52.13430560325691" class="looka-1j8o68f"><defs id="SvgjsDefs1187"></defs><g id="SvgjsG1188" featurekey="HdFLvg-0" transform="matrix(4.045678531961724,0,0,4.045678531961724,0,16.99980708701458)" fill="#000000"><defs xmlns="http://www.w3.org/2000/svg"></defs><g xmlns="http://www.w3.org/2000/svg"><path class="fil0" d="M-0 1.59777c1.78679,0.0661596 2.02227,1.00406 4.40631,0.053922 1.95075,-0.777376 3.4272,-0.793342 5.33331,0.187197 -2.10525,-0.339498 -2.78435,-0.463404 -4.88033,0.300204 -1.69309,0.616853 -3.28485,0.565034 -4.85929,-0.541324zm13.2924 2.86284c1.38409,-0.671061 1.82178,-0.211386 3.72683,-1.37884 0.945261,-0.579375 1.3971,-0.869636 2.43032,-1.26134l-0.103829 0.0496197c1.30923,-0.464265 2.10372,-0.488071 3.42061,-0.0311677 -0.313015,0.0239972 -1.28275,0.0926426 -1.66891,0.149624 -2.82125,0.416366 -4.52085,3.06954 -7.80502,2.4721zm-10.8997 0.211003c1.67283,-1.5711 4.29827,-2.82938 6.43861,-2.27237 2.20497,0.57383 4.62917,1.04842 6.8459,0.428986 0.387302,-0.108226 1.24422,-0.414836 1.65122,-0.3264 -0.426883,0.372961 -1.0292,0.651845 -1.51574,0.878527 -2.11816,0.987136 -5.08502,0.894685 -7.25548,0.117787 -1.96194,-0.702229 -4.33623,0.57861 -6.16451,1.17347zm9.69134 -4.36969c2.33968,-0.394185 3.26372,0.625075 5.06054,0.305845l0.256416 -0.0044935c-1.27271,1.21927 -3.88697,0.0837512 -5.31696,-0.301351zm-8.55553 0.78359c1.62426,-1.20607 3.11648,-1.13112 4.96647,-1.03972l-0.0737126 -0.0175916c1.91337,0.116735 3.65025,1.81528 6.43565,1.66891 1.65982,-0.0872887 3.61909,-1.05702 5.29927,-1.21439 -0.77403,0.643814 -2.53032,1.30484 -3.41869,1.62034 -5.2248,1.85591 -5.54135,-1.00932 -9.67308,-1.36 -1.88985,-0.160332 -2.01519,0.296954 -3.53591,0.342462z" style="fill: #000000;"></path></g></g><g id="SvgjsG1189" featurekey="VomJeJ-0" transform="matrix(3.470992277920289,0,0,3.470992277920289,111.37522188236603,-18.326839955662287)" fill="#000000"><path d="M4.84 17.14 q-0.54 0 -0.8 -0.02 l-0.86 2.9 q-0.48 0.12 -1.34 0.12 q-0.96 0 -1.56 -0.22 l-0.1 -0.16 l4.4 -13.42 q0.78 -0.12 1.82 -0.12 q1.18 0 1.88 0.14 l4.32 13.44 q-0.7 0.38 -1.58 0.38 q-1.04 0 -1.46 -0.36 t-0.72 -1.38 l-0.38 -1.32 q-0.26 0.02 -0.78 0.02 l-2.84 0 z M4.78 14.620000000000001 l0.8 -0.02 l1.46 0 q0.1 0 0.35 0.01 t0.37 0.01 l-0.34 -1.24 q-0.48 -1.68 -1.1 -4.12 l-0.12 0 q-0.16 0.86 -0.96 3.82 z M22.560000000000002 13.4 l0 4.1 q0 1.32 0.48 1.98 q-0.76 0.68 -1.82 0.68 q-1.04 0 -1.42 -0.48 t-0.38 -1.46 l0 -4.26 q0 -0.68 -0.18 -1 t-0.7 -0.32 q-0.3 0 -0.68 0.16 t-0.78 0.52 l0 6.68 q-0.34 0.06 -0.74 0.09 t-0.82 0.03 t-0.82 -0.03 t-0.74 -0.09 l0 -9.98 l0.14 -0.14 l1.18 0 q1.22 0 1.64 1.2 q1.4 -1.24 2.78 -1.24 q1.4 0 2.13 0.97 t0.73 2.59 z M28.5 12.32 l0 7.68 q-0.34 0.06 -0.74 0.09 t-0.82 0.03 t-0.83 -0.03 t-0.75 -0.09 l0 -6.62 q0 -1.16 -0.94 -1.16 l-0.3 0 q-0.12 -0.38 -0.12 -1.06 q0 -0.66 0.12 -1.12 q0.52 -0.04 0.96 -0.07 t0.8 -0.03 l0.44 0 q1.02 0 1.6 0.64 t0.58 1.74 z M25 6 q0.58 -0.32 1.5 -0.32 q0.94 0 1.46 0.32 q0.24 0.54 0.24 1.16 t-0.24 1.16 q-0.58 0.3 -1.52 0.3 t-1.44 -0.3 q-0.24 -0.54 -0.24 -1.16 t0.24 -1.16 z M31.58 18.66 l-1.94 -8.46 q0.98 -0.36 1.7 -0.36 q0.74 0 1.06 0.32 t0.46 1.02 l0.62 3.22 q0.44 2.18 0.52 3.12 q0.02 0.18 0.16 0.18 l1.1 -7.58 q0.7 -0.14 1.84 -0.14 t1.82 0.14 l1.12 7.4 q0.02 0.18 0.16 0.18 q0.36 -2.38 0.54 -3.3 l0.9 -4.36 q0.48 -0.14 1.3 -0.14 q1.02 0 1.54 0.26 l0.1 0.2 l-2.34 9.64 q-0.74 0.12 -2 0.12 t-1.7 -0.28 t-0.56 -1.14 l-0.32 -2.14 q-0.3 -1.86 -0.52 -3.78 l-0.12 0 q-0.02 0.16 -0.52 3.74 l-0.56 3.48 q-0.96 0.12 -2.12 0.12 t-1.61 -0.3 t-0.63 -1.16 z M53.480000000000004 16.02 l-5.22 0 q0.04 0.9 0.46 1.4 t1.38 0.5 q0.48 0 1.11 -0.14 t1.45 -0.46 q0.66 0.68 0.82 1.84 q-1.6 1.14 -3.92 1.14 q-1.26 0 -2.11 -0.4 t-1.38 -1.12 t-0.75 -1.7 t-0.22 -2.14 q0 -1.12 0.27 -2.07 t0.82 -1.65 t1.4 -1.1 t1.99 -0.4 q0.96 0 1.73 0.32 t1.31 0.88 t0.83 1.34 t0.29 1.7 q0 1.22 -0.26 2.06 z M48.24 13.86 l2.64 0 l0 -0.22 q0 -0.74 -0.33 -1.22 t-0.99 -0.48 q-0.64 0 -0.95 0.45 t-0.37 1.47 z M63.42 16.02 l-5.22 0 q0.04 0.9 0.46 1.4 t1.38 0.5 q0.48 0 1.11 -0.14 t1.45 -0.46 q0.66 0.68 0.82 1.84 q-1.6 1.14 -3.92 1.14 q-1.26 0 -2.11 -0.4 t-1.38 -1.12 t-0.75 -1.7 t-0.22 -2.14 q0 -1.12 0.27 -2.07 t0.82 -1.65 t1.4 -1.1 t1.99 -0.4 q0.96 0 1.73 0.32 t1.31 0.88 t0.83 1.34 t0.29 1.7 q0 1.22 -0.26 2.06 z M58.18 13.86 l2.64 0 l0 -0.22 q0 -0.74 -0.33 -1.22 t-0.99 -0.48 q-0.64 0 -0.95 0.45 t-0.37 1.47 z M65.58 19.5 l0 -14.08 l0.14 -0.14 l1.18 0 q0.92 0 1.32 0.42 t0.4 1.46 l0 3.34 q1.04 -0.68 2.32 -0.68 q1.76 0 2.65 1.42 t0.89 3.82 q0 1.14 -0.36 2.08 t-1 1.62 t-1.56 1.05 t-2.02 0.37 q-2.28 0 -3.96 -0.68 z M70 12.32 q-0.78 0 -1.38 0.66 l0 4.88 q0.2 0.04 0.43 0.06 t0.49 0.02 q1.74 0 1.74 -3.02 q0 -2.58 -1.28 -2.6 z"></path></g></svg>